HIERARCHY
ROOT Elbow
{
	OFFSET	0.00	0.00	0.00
	CHANNELS 6 Xposition Yposition Zposition Zrotation Xrotation Yrotation
	JOINT L_Wrist
	{
		OFFSET	 0.208349	 0.000000	 0.000000
		CHANNELS 3 Zrotation Xrotation Yrotation
		JOINT L_index_Proximal
		{
			OFFSET	 0.093499	 0.010637	-0.002084
			CHANNELS 3 Zrotation Xrotation Yrotation
			JOINT L_index_b
			{
				OFFSET	 0.033152	 0.000000	 0.000000
				CHANNELS 3 Zrotation Xrotation Yrotation
				JOINT L_index_c
				{
					OFFSET	 0.018651	 0.000000	 0.000000
					CHANNELS 3 Zrotation Xrotation Yrotation
					End Site
					{
						OFFSET	 0.018651	 0.000000	 0.000000
					}
				}
			}
		}
		JOINT L_middle_Proximal
		{
			OFFSET	 0.090632	-0.006115	-0.003750
			CHANNELS 3 Zrotation Xrotation Yrotation
			JOINT L_middle_b
			{
				OFFSET	 0.037195	 0.000000	 0.000000
				CHANNELS 3 Zrotation Xrotation Yrotation
				JOINT L_middle_c
				{
					OFFSET	 0.021943	 0.000000	 0.000000
					CHANNELS 3 Zrotation Xrotation Yrotation
					End Site
					{
						OFFSET	 0.021943	 0.000000	 0.000000
					}
				}
			}
		}
		JOINT L_pinky_Proximal
		{
			OFFSET	 0.074015	-0.035449	-0.000417
			CHANNELS 3 Zrotation Xrotation Yrotation
			JOINT L_pinky_b
			{
				OFFSET	 0.027285	 0.000000	 0.000000
				CHANNELS 3 Zrotation Xrotation Yrotation
				JOINT L_pinky_c
				{
					OFFSET	 0.015093	 0.000000	 0.000000
					CHANNELS 3 Zrotation Xrotation Yrotation
					End Site
					{
						OFFSET	 0.015093	 0.000000	 0.000000
					}
				}
			}
		}
		JOINT L_ring_Proximal
		{
			OFFSET	 0.082801	-0.021859	-0.003750
			CHANNELS 3 Zrotation Xrotation Yrotation
			JOINT L_ring_b
			{
				OFFSET	 0.034478	 0.000000	 0.000000
				CHANNELS 3 Zrotation Xrotation Yrotation
				JOINT L_ring_c
				{
					OFFSET	 0.021377	 0.000000	 0.000000
					CHANNELS 3 Zrotation Xrotation Yrotation
					End Site
					{
						OFFSET	 0.021377	 0.000000	 0.000000
					}
				}
			}
		}
		JOINT L_thumb_Proximal
		{
			OFFSET	 0.030306	 0.018528	 0.004584
			CHANNELS 3 Zrotation Xrotation Yrotation
			JOINT L_thumb_a
			{
				OFFSET	 0.038520	 0.000000	 0.000000
				CHANNELS 3 Zrotation Xrotation Yrotation
				JOINT L_thumb_b
				{
					OFFSET	 0.026310	 0.000000	 0.000000
					CHANNELS 3 Zrotation Xrotation Yrotation
					End Site
					{
						OFFSET	 0.026310	 0.000000	 0.000000
					}
				}
			}
		}
	}
}
MOTION
Frames:    7
Frame Time: 0.01666667
 0.947903	-0.111096	 0.631442	-86.540880	 40.037430	 174.093400	-2.314658	 1.852735	 10.570890	 7.206373	-1.429260	-12.904510	-1.051531	 0.118214	-12.829010	-0.388893	 0.027849	-8.190652	-14.397950	-4.304417	-74.371590	-5.666095	 4.792964	-80.442780	-1.537237	 0.573924	-40.943880	-33.440610	-15.897150	-59.686940	-5.258162	 3.636572	-69.316360	-1.072056	 0.566878	-55.736640	-21.649370	-9.101700	-70.724190	-2.196660	 1.783629	-78.148840	 3.202225	-1.284210	-43.696790	 78.854680	 39.450260	-57.105260	 10.888680	 0.123765	 1.298439	 1.270735	-0.058225	-5.246716
 0.947924	-0.111278	 0.631400	-86.529270	 40.011490	 174.065000	-2.295304	 1.854110	 10.578800	 7.230858	-1.434304	-12.910690	-1.045002	 0.117155	-12.793210	-0.396092	 0.028328	-8.182129	-14.388110	-4.319443	-74.284630	-5.713525	 4.828699	-80.391220	-1.585318	 0.591657	-40.930660	-33.462930	-15.884850	-59.661700	-5.257228	 3.631666	-69.253480	-1.079683	 0.571228	-55.763550	-21.667610	-9.088653	-70.674720	-2.217750	 1.798267	-78.071450	 3.189560	-1.278975	-43.691670	 78.821290	 39.477640	-57.097190	 10.889010	 0.122691	 1.287245	 1.310915	-0.059803	-5.224206
 0.947978	-0.111341	 0.631486	-86.518360	 40.047570	 174.055900	-2.288418	 1.856317	 10.591630	 7.233215	-1.438549	-12.972890	-1.059410	 0.118604	-12.775430	-0.382488	 0.027369	-8.185305	-14.399250	-4.305396	-74.332710	-5.689061	 4.812879	-80.448570	-1.526411	 0.569268	-40.903530	-33.449120	-15.899600	-59.571650	-5.216044	 3.602150	-69.237830	-1.038636	 0.549606	-55.770700	-21.669640	-9.088011	-70.636090	-2.205682	 1.788233	-78.063770	 3.216309	-1.288930	-43.668100	 78.819340	 39.438420	-57.157050	 10.867220	 0.115841	 1.217800	 1.292026	-0.060082	-5.324871
 0.947867	-0.111305	 0.631500	-86.522520	 40.076390	 174.075900	-2.279080	 1.858359	 10.603420	 7.208135	-1.436367	-13.011070	-1.069527	 0.119750	-12.776520	-0.372865	 0.026690	-8.187796	-14.399060	-4.303577	-74.360380	-5.689200	 4.814069	-80.461110	-1.528306	 0.570008	-40.906150	-33.436580	-15.910620	-59.529000	-5.231598	 3.613665	-69.249210	-1.055712	 0.558599	-55.768070	-21.667510	-9.090559	-70.618520	-2.216239	 1.797323	-78.080430	 3.201197	-1.282817	-43.666430	 78.818340	 39.438610	-57.157580	 10.873370	 0.117690	 1.236526	 1.288174	-0.059104	-5.253778
 0.948039	-0.111250	 0.631533	-86.519810	 40.064700	 174.079200	-2.281250	 1.859502	 10.610060	 7.195926	-1.436215	-13.033520	-1.091123	 0.122239	-12.783620	-0.399509	 0.028618	-8.194366	-14.390400	-4.311222	-74.367460	-5.672151	 4.797791	-80.439340	-1.540023	 0.574598	-40.920540	-33.423910	-15.921580	-59.495590	-5.240910	 3.619265	-69.236800	-1.056083	 0.558831	-55.770570	-21.659460	-9.097748	-70.616950	-2.215339	 1.795943	-78.059990	 3.195873	-1.280920	-43.673740	 78.824920	 39.434610	-57.155850	 10.876290	 0.119193	 1.251982	 1.282923	-0.058640	-5.234115
 0.947825	-0.111208	 0.631486	-86.564340	 40.095980	 174.088000	-2.257452	 1.854928	 10.583760	 7.208362	-1.438170	-13.030290	-1.070297	 0.119887	-12.782030	-0.393683	 0.028156	-8.181635	-14.371280	-4.329512	-74.347640	-5.680045	 4.804917	-80.444500	-1.558847	 0.581815	-40.932530	-33.415930	-15.922420	-59.551840	-5.275119	 3.644639	-69.262240	-1.038054	 0.549427	-55.783130	-21.656080	-9.096789	-70.704150	-2.229419	 1.808928	-78.108510	 3.228319	-1.294043	-43.677020	 78.845750	 39.435730	-57.135250	 10.866320	 0.115502	 1.214371	 1.330986	-0.061578	-5.297551
 0.947822	-0.111313	 0.631471	-86.573880	 40.085310	 174.069500	-2.236222	 1.854480	 10.580990	 7.227341	-1.441535	-13.026100	-1.044794	 0.116740	-12.750520	-0.373964	 0.026646	-8.151462	-14.347200	-4.354548	-74.299660	-5.666196	 4.794211	-80.456480	-1.574313	 0.587481	-40.926480	-33.395890	-15.934600	-59.558020	-5.272434	 3.643482	-69.272480	-1.027083	 0.543731	-55.792930	-21.640440	-9.108725	-70.729450	-2.225266	 1.805915	-78.119860	 3.225998	-1.293202	-43.679910	 78.851030	 39.448520	-57.111430	 10.854080	 0.115232	 1.213017	 1.328578	-0.061704	-5.318463
